# xmcd
#
# Track frame offsets:
#	150
#	26387
#	45569
#	65021
#	99816
#	126601
#	147892
#	173495
#	192317
#	210344
#
# Disc length: 3157 seconds
# Revision: 0
# Processed by: cddbd v1.5.2PL0 Copyright (c) Steve Scherf et al.
# Submitted via: dBpowerAMP V12.0
#
DISCID=840c530a
DTITLE=Bargel and Heuser - Men in Blues
DYEAR=2012
DGENRE=Blues-rock
TTITLE0=Don Quijote
TTITLE1=All Talker And Stalker
TTITLE2=The Heat
TTITLE3=Posoned
TTITLE4=I Got To Start From Zero
TTITLE5=The Devil Can't Stop Me
TTITLE6=How Can I Go On?
TTITLE7=High Speed Train
TTITLE8=Where I Belong
TTITLE9=Wrinkles And Scars
EXTD=
EXTT0=
EXTT1=
EXTT2=
EXTT3=
EXTT4=
EXTT5=
EXTT6=
EXTT7=
EXTT8=
EXTT9=
PLAYORDER=
